<svg width="600" height="180" viewBox="0 0 600 180" xmlns="http://www.w3.org/2000/svg">
  <defs>
    <clipPath id="g2"><circle cx="100" cy="100" r="80"/></clipPath>
  </defs>
  <g transform="translate(6,10.0) scale(0.8)">
    
  <defs>
    <clipPath id="g2"><circle cx="100" cy="100" r="80"/></clipPath>
  </defs>
  <g clip-path="url(#g2)">
    <circle cx="25.0" cy="100.0" r="2.54" fill="rgb(43,107,173)" fill-opacity="0.40"/>
    <circle cx="37.5" cy="62.5" r="2.56" fill="rgb(69,122,175)" fill-opacity="0.43"/>
    <circle cx="37.5" cy="75.0" r="2.60" fill="rgb(69,122,175)" fill-opacity="0.52"/>
    <circle cx="37.5" cy="87.5" r="2.63" fill="rgb(69,122,175)" fill-opacity="0.57"/>
    <circle cx="37.5" cy="100.0" r="2.63" fill="rgb(69,122,175)" fill-opacity="0.58"/>
    <circle cx="37.5" cy="112.5" r="2.63" fill="rgb(69,122,175)" fill-opacity="0.57"/>
    <circle cx="37.5" cy="125.0" r="2.60" fill="rgb(69,122,175)" fill-opacity="0.52"/>
    <circle cx="37.5" cy="137.5" r="2.56" fill="rgb(69,122,175)" fill-opacity="0.43"/>
    <circle cx="50.0" cy="50.0" r="2.57" fill="rgb(94,137,178)" fill-opacity="0.47"/>
    <circle cx="50.0" cy="62.5" r="2.63" fill="rgb(94,137,178)" fill-opacity="0.58"/>
    <circle cx="50.0" cy="75.0" r="2.68" fill="rgb(94,137,178)" fill-opacity="0.66"/>
    <circle cx="50.0" cy="87.5" r="2.72" fill="rgb(94,137,178)" fill-opacity="0.71"/>
    <circle cx="50.0" cy="100.0" r="2.73" fill="rgb(94,137,178)" fill-opacity="0.72"/>
    <circle cx="50.0" cy="112.5" r="2.72" fill="rgb(94,137,178)" fill-opacity="0.71"/>
    <circle cx="50.0" cy="125.0" r="2.68" fill="rgb(94,137,178)" fill-opacity="0.66"/>
    <circle cx="50.0" cy="137.5" r="2.63" fill="rgb(94,137,178)" fill-opacity="0.58"/>
    <circle cx="50.0" cy="150.0" r="2.57" fill="rgb(94,137,178)" fill-opacity="0.47"/>
    <circle cx="62.5" cy="37.5" r="2.56" fill="rgb(120,151,181)" fill-opacity="0.43"/>
    <circle cx="62.5" cy="50.0" r="2.63" fill="rgb(120,151,181)" fill-opacity="0.58"/>
    <circle cx="62.5" cy="62.5" r="2.71" fill="rgb(120,151,181)" fill-opacity="0.69"/>
    <circle cx="62.5" cy="75.0" r="2.76" fill="rgb(120,151,181)" fill-opacity="0.77"/>
    <circle cx="62.5" cy="87.5" r="2.81" fill="rgb(120,151,181)" fill-opacity="0.82"/>
    <circle cx="62.5" cy="100.0" r="2.82" fill="rgb(120,151,181)" fill-opacity="0.83"/>
    <circle cx="62.5" cy="112.5" r="2.81" fill="rgb(120,151,181)" fill-opacity="0.82"/>
    <circle cx="62.5" cy="125.0" r="2.76" fill="rgb(120,151,181)" fill-opacity="0.77"/>
    <circle cx="62.5" cy="137.5" r="2.71" fill="rgb(120,151,181)" fill-opacity="0.69"/>
    <circle cx="62.5" cy="150.0" r="2.63" fill="rgb(120,151,181)" fill-opacity="0.58"/>
    <circle cx="62.5" cy="162.5" r="2.56" fill="rgb(120,151,181)" fill-opacity="0.43"/>
    <circle cx="75.0" cy="37.5" r="2.60" fill="rgb(146,166,184)" fill-opacity="0.52"/>
    <circle cx="75.0" cy="50.0" r="2.68" fill="rgb(146,166,184)" fill-opacity="0.66"/>
    <circle cx="75.0" cy="62.5" r="2.76" fill="rgb(146,166,184)" fill-opacity="0.77"/>
    <circle cx="75.0" cy="75.0" r="2.84" fill="rgb(146,166,184)" fill-opacity="0.84"/>
    <circle cx="75.0" cy="87.5" r="2.89" fill="rgb(146,166,184)" fill-opacity="0.89"/>
    <circle cx="75.0" cy="100.0" r="2.91" fill="rgb(146,166,184)" fill-opacity="0.90"/>
    <circle cx="75.0" cy="112.5" r="2.89" fill="rgb(146,166,184)" fill-opacity="0.89"/>
    <circle cx="75.0" cy="125.0" r="2.84" fill="rgb(146,166,184)" fill-opacity="0.84"/>
    <circle cx="75.0" cy="137.5" r="2.76" fill="rgb(146,166,184)" fill-opacity="0.77"/>
    <circle cx="75.0" cy="150.0" r="2.68" fill="rgb(146,166,184)" fill-opacity="0.66"/>
    <circle cx="75.0" cy="162.5" r="2.60" fill="rgb(146,166,184)" fill-opacity="0.52"/>
    <circle cx="87.5" cy="37.5" r="2.63" fill="rgb(172,181,187)" fill-opacity="0.57"/>
    <circle cx="87.5" cy="50.0" r="2.72" fill="rgb(172,181,187)" fill-opacity="0.71"/>
    <circle cx="87.5" cy="62.5" r="2.81" fill="rgb(172,181,187)" fill-opacity="0.82"/>
    <circle cx="87.5" cy="75.0" r="2.89" fill="rgb(172,181,187)" fill-opacity="0.89"/>
    <circle cx="87.5" cy="87.5" r="2.97" fill="rgb(172,181,187)" fill-opacity="0.93"/>
    <circle cx="87.5" cy="100.0" r="3.01" fill="rgb(172,181,187)" fill-opacity="0.94"/>
    <circle cx="87.5" cy="112.5" r="2.97" fill="rgb(172,181,187)" fill-opacity="0.93"/>
    <circle cx="87.5" cy="125.0" r="2.89" fill="rgb(172,181,187)" fill-opacity="0.89"/>
    <circle cx="87.5" cy="137.5" r="2.81" fill="rgb(172,181,187)" fill-opacity="0.82"/>
    <circle cx="87.5" cy="150.0" r="2.72" fill="rgb(172,181,187)" fill-opacity="0.71"/>
    <circle cx="87.5" cy="162.5" r="2.63" fill="rgb(172,181,187)" fill-opacity="0.57"/>
    <circle cx="100.0" cy="25.0" r="2.54" fill="rgb(198,196,190)" fill-opacity="0.40"/>
    <circle cx="100.0" cy="37.5" r="2.63" fill="rgb(198,196,190)" fill-opacity="0.58"/>
    <circle cx="100.0" cy="50.0" r="2.73" fill="rgb(198,196,190)" fill-opacity="0.72"/>
    <circle cx="100.0" cy="62.5" r="2.82" fill="rgb(198,196,190)" fill-opacity="0.83"/>
    <circle cx="100.0" cy="75.0" r="2.91" fill="rgb(198,196,190)" fill-opacity="0.90"/>
    <circle cx="100.0" cy="87.5" r="3.01" fill="rgb(198,196,190)" fill-opacity="0.94"/>
    <circle cx="100.0" cy="100.0" r="3.10" fill="rgb(198,196,190)" fill-opacity="0.95"/>
    <circle cx="100.0" cy="112.5" r="3.01" fill="rgb(198,196,190)" fill-opacity="0.94"/>
    <circle cx="100.0" cy="125.0" r="2.91" fill="rgb(198,196,190)" fill-opacity="0.90"/>
    <circle cx="100.0" cy="137.5" r="2.82" fill="rgb(198,196,190)" fill-opacity="0.83"/>
    <circle cx="100.0" cy="150.0" r="2.73" fill="rgb(198,196,190)" fill-opacity="0.72"/>
    <circle cx="100.0" cy="162.5" r="2.63" fill="rgb(198,196,190)" fill-opacity="0.58"/>
    <circle cx="100.0" cy="175.0" r="2.54" fill="rgb(198,196,190)" fill-opacity="0.40"/>
    <circle cx="112.5" cy="37.5" r="2.63" fill="rgb(194,169,167)" fill-opacity="0.57"/>
    <circle cx="112.5" cy="50.0" r="2.72" fill="rgb(194,169,167)" fill-opacity="0.71"/>
    <circle cx="112.5" cy="62.5" r="2.81" fill="rgb(194,169,167)" fill-opacity="0.82"/>
    <circle cx="112.5" cy="75.0" r="2.89" fill="rgb(194,169,167)" fill-opacity="0.89"/>
    <circle cx="112.5" cy="87.5" r="2.97" fill="rgb(194,169,167)" fill-opacity="0.93"/>
    <circle cx="112.5" cy="100.0" r="3.01" fill="rgb(194,169,167)" fill-opacity="0.94"/>
    <circle cx="112.5" cy="112.5" r="2.97" fill="rgb(194,169,167)" fill-opacity="0.93"/>
    <circle cx="112.5" cy="125.0" r="2.89" fill="rgb(194,169,167)" fill-opacity="0.89"/>
    <circle cx="112.5" cy="137.5" r="2.81" fill="rgb(194,169,167)" fill-opacity="0.82"/>
    <circle cx="112.5" cy="150.0" r="2.72" fill="rgb(194,169,167)" fill-opacity="0.71"/>
    <circle cx="112.5" cy="162.5" r="2.63" fill="rgb(194,169,167)" fill-opacity="0.57"/>
    <circle cx="125.0" cy="37.5" r="2.60" fill="rgb(191,142,144)" fill-opacity="0.52"/>
    <circle cx="125.0" cy="50.0" r="2.68" fill="rgb(191,142,144)" fill-opacity="0.66"/>
    <circle cx="125.0" cy="62.5" r="2.76" fill="rgb(191,142,144)" fill-opacity="0.77"/>
    <circle cx="125.0" cy="75.0" r="2.84" fill="rgb(191,142,144)" fill-opacity="0.84"/>
    <circle cx="125.0" cy="87.5" r="2.89" fill="rgb(191,142,144)" fill-opacity="0.89"/>
    <circle cx="125.0" cy="100.0" r="2.91" fill="rgb(191,142,144)" fill-opacity="0.90"/>
    <circle cx="125.0" cy="112.5" r="2.89" fill="rgb(191,142,144)" fill-opacity="0.89"/>
    <circle cx="125.0" cy="125.0" r="2.84" fill="rgb(191,142,144)" fill-opacity="0.84"/>
    <circle cx="125.0" cy="137.5" r="2.76" fill="rgb(191,142,144)" fill-opacity="0.77"/>
    <circle cx="125.0" cy="150.0" r="2.68" fill="rgb(191,142,144)" fill-opacity="0.66"/>
    <circle cx="125.0" cy="162.5" r="2.60" fill="rgb(191,142,144)" fill-opacity="0.52"/>
    <circle cx="137.5" cy="37.5" r="2.56" fill="rgb(188,115,121)" fill-opacity="0.43"/>
    <circle cx="137.5" cy="50.0" r="2.63" fill="rgb(188,115,121)" fill-opacity="0.58"/>
    <circle cx="137.5" cy="62.5" r="2.71" fill="rgb(188,115,121)" fill-opacity="0.69"/>
    <circle cx="137.5" cy="75.0" r="2.76" fill="rgb(188,115,121)" fill-opacity="0.77"/>
    <circle cx="137.5" cy="87.5" r="2.81" fill="rgb(188,115,121)" fill-opacity="0.82"/>
    <circle cx="137.5" cy="100.0" r="2.82" fill="rgb(188,115,121)" fill-opacity="0.83"/>
    <circle cx="137.5" cy="112.5" r="2.81" fill="rgb(188,115,121)" fill-opacity="0.82"/>
    <circle cx="137.5" cy="125.0" r="2.76" fill="rgb(188,115,121)" fill-opacity="0.77"/>
    <circle cx="137.5" cy="137.5" r="2.71" fill="rgb(188,115,121)" fill-opacity="0.69"/>
    <circle cx="137.5" cy="150.0" r="2.63" fill="rgb(188,115,121)" fill-opacity="0.58"/>
    <circle cx="137.5" cy="162.5" r="2.56" fill="rgb(188,115,121)" fill-opacity="0.43"/>
    <circle cx="150.0" cy="50.0" r="2.57" fill="rgb(185,88,98)" fill-opacity="0.47"/>
    <circle cx="150.0" cy="62.5" r="2.63" fill="rgb(185,88,98)" fill-opacity="0.58"/>
    <circle cx="150.0" cy="75.0" r="2.68" fill="rgb(185,88,98)" fill-opacity="0.66"/>
    <circle cx="150.0" cy="87.5" r="2.72" fill="rgb(185,88,98)" fill-opacity="0.71"/>
    <circle cx="150.0" cy="100.0" r="2.73" fill="rgb(185,88,98)" fill-opacity="0.72"/>
    <circle cx="150.0" cy="112.5" r="2.72" fill="rgb(185,88,98)" fill-opacity="0.71"/>
    <circle cx="150.0" cy="125.0" r="2.68" fill="rgb(185,88,98)" fill-opacity="0.66"/>
    <circle cx="150.0" cy="137.5" r="2.63" fill="rgb(185,88,98)" fill-opacity="0.58"/>
    <circle cx="150.0" cy="150.0" r="2.57" fill="rgb(185,88,98)" fill-opacity="0.47"/>
    <circle cx="162.5" cy="62.5" r="2.56" fill="rgb(182,61,75)" fill-opacity="0.43"/>
    <circle cx="162.5" cy="75.0" r="2.60" fill="rgb(182,61,75)" fill-opacity="0.52"/>
    <circle cx="162.5" cy="87.5" r="2.63" fill="rgb(182,61,75)" fill-opacity="0.57"/>
    <circle cx="162.5" cy="100.0" r="2.63" fill="rgb(182,61,75)" fill-opacity="0.58"/>
    <circle cx="162.5" cy="112.5" r="2.63" fill="rgb(182,61,75)" fill-opacity="0.57"/>
    <circle cx="162.5" cy="125.0" r="2.60" fill="rgb(182,61,75)" fill-opacity="0.52"/>
    <circle cx="162.5" cy="137.5" r="2.56" fill="rgb(182,61,75)" fill-opacity="0.43"/>
    <circle cx="175.0" cy="100.0" r="2.54" fill="rgb(179,34,52)" fill-opacity="0.40"/>
  </g>
  <circle cx="100" cy="100" r="80" fill="none" stroke="#1F2A37" stroke-opacity="0.10" stroke-width="2"/>

  <!-- diverging traces -->
  <path d="M 44 108 C 82 112, 108 120, 150 122" fill="none" stroke="#1E5FA8" stroke-width="5.2" stroke-linecap="round"/>
  <path d="M 44 108 C 82 94, 110 74, 152 66"  fill="none" stroke="#B0182B"  stroke-width="5.2" stroke-linecap="round"/>

  <!-- shared origin -->
  <circle cx="44" cy="108" r="5.4" fill="#1F2A37"/>
  <!-- blue endpoint: filled (aid delivered) -->
  <circle cx="150" cy="122" r="6.2" fill="#1E5FA8"/>
  <!-- red endpoint: open ring (need, unmet) -->
  <circle cx="152" cy="66" r="6.4" fill="#fff" stroke="#B0182B" stroke-width="3"/>

  </g>
  <text x="190" y="116" font-family="'Source Sans Pro','Segoe UI',Helvetica,Arial,sans-serif"
        font-size="96" font-weight="800" letter-spacing="2" fill="#1F2A37">TRACE</text>
</svg>